Coordinates
version=1
nRows=4
nColumns=63
inDegrees=yes

Units are S.I. units (second, meters, Newtons, ...)
If the header above contains a line with 'inDegrees', this indicates whether rotational values are in degrees (yes) or radians (no).

endheader
time	pelvis_tilt	pelvis_list	pelvis_rotation	pelvis_tx	pelvis_ty	pelvis_tz	hip_flexion_r	hip_adduction_r	hip_rotation_r	knee_angle_r	knee_angle_r_beta	ankle_angle_r	subtalar_angle_r	mtp_angle_r	hip_flexion_l	hip_adduction_l	hip_rotation_l	knee_angle_l	knee_angle_l_beta	ankle_angle_l	subtalar_angle_l	mtp_angle_l	L5_S1_Flex_Ext	L5_S1_Lat_Bending	L5_S1_axial_rotation	L4_L5_Flex_Ext	L4_L5_Lat_Bending	L4_L5_axial_rotation	L3_L4_Flex_Ext	L3_L4_Lat_Bending	L3_L4_axial_rotation	L2_L3_Flex_Ext	L2_L3_Lat_Bending	L2_L3_axial_rotation	L1_L2_Flex_Ext	L1_L2_Lat_Bending	L1_L2_axial_rotation	L1_T12_Flex_Ext	L1_T12_Lat_Bending	L1_T12_axial_rotation	Abs_r3	Abs_r2	Abs_r1	Abs_t1	Abs_t2	neck_flexion	neck_bending	neck_rotation	arm_flex_r	arm_add_r	arm_rot_r	elbow_flex_r	pro_sup_r	wrist_flex_r	wrist_dev_r	arm_flex_l	arm_add_l	arm_rot_l	elbow_flex_l	pro_sup_l	wrist_flex_l	wrist_dev_l
      3.72340426	      4.12636448	    -32.34973265	     87.10845296	      0.27968461	      0.78411285	      0.77338853	     51.02317391	     10.05139690	      6.01099435	     33.67576386	      0.58775296	     43.21539564	     -3.95189705	      0.00000000	     53.29351654	     -5.09571234	      7.73740961	     40.89654008	      0.71377928	     47.06493193	    -14.35480675	      0.00000000	     -0.18042765	     -0.13164839	      0.88279078	     -0.33507218	     -0.17509236	      0.93796520	     -0.29642458	     -0.32008990	      0.93796520	     -0.20621076	     -0.32008990	      0.77244193	     -0.16754511	     -0.26845740	      0.71726751	     -0.10309636	     -0.20392336	      0.66209308	     -1.28877663	     -1.48923293	      4.90981748	      0.00000000	      0.00000000	      6.75017449	      9.66920036	    -10.96113765	     41.42197942	    -13.86999189	     55.19529011	     53.04819789	     89.45038698	    -39.37260359	    -15.46064392	     80.26899747	    -17.24056145	    163.92852230	      0.41971165	      5.47331371	    -54.92958645	     -9.53150656
      3.74468085	      3.45815237	    -32.60513154	     87.22711392	      0.27978730	      0.78054632	      0.77452883	     52.16497226	      9.47617616	      6.26339114	     35.39567226	      0.61777102	     43.76883801	     -4.88379962	      0.00000000	     54.00862807	     -4.66811333	      6.61275614	     41.78258928	      0.72924375	     47.55371819	    -13.38338386	      0.00000000	     -0.15397932	     -0.22200569	      0.59854338	     -0.28595499	     -0.29526757	      0.63595234	     -0.25297262	     -0.53978463	      0.63595234	     -0.17598296	     -0.53978463	      0.52372545	     -0.14298519	     -0.45271400	      0.48631649	     -0.08798378	     -0.34388681	      0.44890753	     -1.09985885	     -2.51137275	      3.32891870	      0.00000000	      0.00000000	      7.04610675	     10.22740284	    -10.68405967	     41.36779169	    -13.09981155	     57.55923378	     52.62298760	     89.40246648	    -43.18608012	    -15.50893352	     81.43854031	    -18.61386825	    165.23488900	      0.38227769	      7.46237640	    -51.13111590	     -7.77092177
      3.76595745	      2.13302710	    -32.58455572	     86.00374607	      0.28192802	      0.77744906	      0.77594016	     52.99958559	      9.34304851	      7.46097215	     36.98586938	      0.64552520	     44.40344255	     -5.43406421	      0.00000000	     54.37336906	     -4.73988536	      4.57959380	     42.74424333	      0.74602778	     48.06651152	    -12.38970541	      0.00000000	     -0.18342637	     -0.41007843	      0.56210528	     -0.34064111	     -0.54540431	      0.59723686	     -0.30135118	     -0.99706468	      0.59723686	     -0.20963800	     -0.99706468	      0.49184212	     -0.17032973	     -0.83623193	      0.45671054	     -0.10480983	     -0.63521148	      0.42157896	     -1.31019621	     -4.63888917	      3.12626095	      0.00000000	      0.00000000	      7.58032136	     11.02826504	    -11.82482427	     40.52479146	    -12.12494848	     57.35969579	     52.69658272	     89.38142407	    -43.91524055	    -14.52940003	     82.81607740	    -19.32822985	    167.49623695	      0.38332281	     10.70962448	    -49.21951201	     -3.97436492
      3.78723404	      2.01348528	    -32.77330513	     86.18172093	      0.28129487	      0.77389681	      0.77766310	     54.00656258	      9.15447731	      7.38729698	     38.39527844	      0.67012403	     44.80095319	     -5.81317338	      0.00000000	     55.29752788	     -4.68451321	      4.02066547	     43.97375939	      0.76748689	     48.32303087	    -11.70224649	      0.00000000	     -0.18235106	     -0.42238478	      0.42127813	     -0.33864415	     -0.56177176	      0.44760801	     -0.29958455	     -1.02698636	      0.44760801	     -0.20840903	     -1.02698636	      0.36861836	     -0.16933119	     -0.86132705	      0.34228848	     -0.10419540	     -0.65427403	      0.31595860	     -1.30251538	     -4.77810112	      2.34302258	      0.00000000	      0.00000000	      7.71619153	     10.78626817	    -12.01014885	     39.60264649	    -12.07321474	     56.94823866	     53.47732315	     89.35190886	    -43.47141039	    -12.85742579	     83.08285151	    -19.74413587	    167.18517284	      0.38875740	     10.76112935	    -47.83736768	     -4.04696922
